<svg xmlns="http://www.w3.org/2000/svg" version="1.1" xmlns:xlink="http://www.w3.org/1999/xlink" viewBox="0 0 200 200"><rect width="200" height="200" fill="url('#gradient')"></rect><defs><linearGradient id="gradient" gradientTransform="rotate(85 0.5 0.5)"><stop offset="0%" stop-color="#ffffff"></stop><stop offset="100%" stop-color="#c0c0bc"></stop></linearGradient></defs><g><g fill="#1b3855" transform="matrix(7.327050610820244,0,0,7.327050610820244,10.133100857285314,152.09470568768432)" stroke="#0e5278" stroke-width="0"><path d="M9.89-8.57L9.89-6.03L4.50-6.03L4.50-2.64L10.87-2.64L10.87 0L1.07 0L1.07-14.22L10.89-14.22L10.89-11.57L4.50-11.57L4.50-8.57L9.89-8.57ZM17.88-4.82L15.69-4.82L15.69 0L12.27 0L12.27-14.22L17.94-14.22Q19.57-14.22 20.83-13.62Q22.08-13.02 22.77-11.91Q23.46-10.80 23.46-9.39L23.46-9.39Q23.46-7.31 21.97-6.07Q20.48-4.82 17.88-4.82L17.88-4.82ZM15.69-11.57L15.69-7.47L17.94-7.47Q18.94-7.47 19.46-7.97Q19.98-8.47 19.98-9.38L19.98-9.38Q19.98-10.37 19.44-10.97Q18.91-11.56 17.98-11.57L17.98-11.57L15.69-11.57Z"></path></g></g></svg>